# This file uses centimeters as units for non-parametric coordinates.

mtllib MG Glass.mtl
g default
v -0.752114 1.583979 -0.089176
v 0.752114 1.583979 -0.089176
v -0.000000 0.281279 -0.089176
v 0.000000 2.018212 -0.089176
v 0.752114 0.715512 -0.089176
v -0.752114 0.715512 -0.089176
v -0.000000 1.149746 -0.089176
v -0.868467 1.149746 -0.089176
v -0.434233 1.901860 -0.089176
v 0.000000 1.583979 -0.089176
v -0.376057 0.932629 -0.089176
v -0.376057 1.366862 -0.089176
v 0.434234 1.901860 -0.089176
v 0.868467 1.149745 -0.089176
v 0.376057 0.932629 -0.089176
v 0.376057 1.366862 -0.089176
v 0.434233 0.397631 -0.089176
v -0.434234 0.397631 -0.089176
v -0.000000 0.715512 -0.089176
v -0.564086 0.824071 -0.089176
v -0.838875 0.924970 -0.089176
v -0.622262 1.258304 -0.089176
v -0.376057 1.149746 -0.089176
v -0.593174 1.041187 -0.089176
v -0.838875 1.374521 -0.089176
v -0.614099 1.763844 -0.089176
v -0.405145 1.634361 -0.089176
v -0.607718 1.500612 -0.089176
v -0.224776 1.988620 -0.089176
v 0.000000 1.801096 -0.089176
v -0.188029 1.475421 -0.089176
v -0.202573 1.717728 -0.089176
v -0.000000 1.366862 -0.089176
v -0.188029 1.041187 -0.089176
v -0.188029 1.258304 -0.089176
v 0.224776 1.988620 -0.089176
v 0.405145 1.634361 -0.089176
v 0.188029 1.475421 -0.089176
v 0.202573 1.717728 -0.089176
v 0.614099 1.763844 -0.089176
v 0.838875 1.374521 -0.089176
v 0.622262 1.258304 -0.089176
v 0.607718 1.500612 -0.089176
v 0.838875 0.924970 -0.089176
v 0.564086 0.824070 -0.089176
v 0.376057 1.149745 -0.089176
v 0.593174 1.041187 -0.089176
v 0.188029 1.041187 -0.089176
v 0.188029 1.258304 -0.089176
v 0.614099 0.535647 -0.089176
v 0.217117 0.556572 -0.089176
v 0.188029 0.824070 -0.089176
v 0.390601 0.690321 -0.089176
v 0.224776 0.310871 -0.089176
v -0.224776 0.310871 -0.089176
v -0.217117 0.556572 -0.089176
v -0.000000 0.448013 -0.089176
v -0.614099 0.535647 -0.089176
v -0.188029 0.824071 -0.089176
v -0.390601 0.690321 -0.089176
v -0.000000 0.932629 -0.089176
v -0.752114 1.583979 0.029134
v 0.752114 1.583979 0.029134
v -0.000000 0.281279 0.029134
v 0.000000 2.018212 0.029134
v 0.752114 0.715512 0.029134
v -0.752114 0.715512 0.029134
v -0.000000 1.149746 0.029134
v -0.868467 1.149746 0.029134
v -0.434233 1.901860 0.029134
v 0.000000 1.583979 0.029134
v -0.376057 0.932629 0.029134
v -0.376057 1.366862 0.029134
v 0.434234 1.901860 0.029134
v 0.868467 1.149745 0.029134
v 0.376057 0.932629 0.029134
v 0.376057 1.366862 0.029134
v 0.434233 0.397631 0.029134
v -0.434234 0.397631 0.029134
v -0.000000 0.715512 0.029134
v -0.564086 0.824071 0.029134
v -0.838875 0.924970 0.029134
v -0.622262 1.258304 0.029134
v -0.376057 1.149746 0.029134
v -0.593174 1.041187 0.029134
v -0.838875 1.374521 0.029134
v -0.614099 1.763844 0.029134
v -0.405145 1.634361 0.029134
v -0.607718 1.500612 0.029134
v -0.224776 1.988620 0.029134
v 0.000000 1.801096 0.029134
v -0.188029 1.475421 0.029134
v -0.202573 1.717728 0.029134
v -0.000000 1.366862 0.029134
v -0.188029 1.041187 0.029134
v -0.188029 1.258304 0.029134
v 0.224776 1.988620 0.029134
v 0.405145 1.634361 0.029134
v 0.188029 1.475421 0.029134
v 0.202573 1.717728 0.029134
v 0.614099 1.763844 0.029134
v 0.838875 1.374521 0.029134
v 0.622262 1.258304 0.029134
v 0.607718 1.500612 0.029134
v 0.838875 0.924970 0.029134
v 0.564086 0.824070 0.029134
v 0.376057 1.149745 0.029134
v 0.593174 1.041187 0.029134
v 0.188029 1.041187 0.029134
v 0.188029 1.258304 0.029134
v 0.614099 0.535647 0.029134
v 0.217117 0.556572 0.029134
v 0.188029 0.824070 0.029134
v 0.390601 0.690321 0.029134
v 0.224776 0.310871 0.029134
v -0.224776 0.310871 0.029134
v -0.217117 0.556572 0.029134
v -0.000000 0.448013 0.029134
v -0.614099 0.535647 0.029134
v -0.188029 0.824071 0.029134
v -0.390601 0.690321 0.029134
v -0.000000 0.932629 0.029134
vt 0.249915 0.357508
vt 0.311937 0.357508
vt 0.342949 0.411221
vt 0.280926 0.419530
vt 0.280926 0.303795
vt 0.218904 0.303795
vt 0.342949 0.303795
vt 0.381156 0.361662
vt 0.373960 0.464934
vt 0.314125 0.489718
vt 0.218904 0.427840
vt 0.187892 0.357508
vt 0.311937 0.250082
vt 0.156881 0.303795
vt 0.187892 0.250082
vt 0.249915 0.250082
vt 0.373960 0.250082
vt 0.419363 0.312104
vt 0.425341 0.425508
vt 0.249915 0.498171
vt 0.111478 0.365817
vt 0.149685 0.423685
vt 0.280926 0.196369
vt 0.342949 0.196369
vt 0.087663 0.307949
vt 0.125870 0.250082
vt 0.218904 0.196369
vt 0.419363 0.188059
vt 0.450375 0.250082
vt 0.464767 0.374127
vt 0.185705 0.489718
vt 0.074489 0.425508
vt 0.035063 0.374127
vt 0.311937 0.142656
vt 0.381156 0.138501
vt 0.010279 0.314292
vt 0.063848 0.250082
vt 0.156881 0.196369
vt 0.249915 0.142656
vt 0.464767 0.126037
vt 0.489551 0.185871
vt 0.489551 0.314292
vt 0.125870 0.464934
vt 0.342949 0.088943
vt 0.425341 0.074656
vt 0.001825 0.250082
vt 0.087663 0.192214
vt 0.187893 0.142656
vt 0.280926 0.080633
vt 0.498005 0.250082
vt 0.373960 0.035230
vt 0.010279 0.185871
vt 0.111478 0.134346
vt 0.218904 0.072324
vt 0.314125 0.010446
vt 0.035063 0.126037
vt 0.149685 0.076479
vt 0.249915 0.001992
vt 0.074489 0.074656
vt 0.185705 0.010445
vt 0.125870 0.035230
vt 0.666392 0.857344
vt 0.635381 0.919367
vt 0.573359 0.911057
vt 0.604370 0.857344
vt 0.697404 0.927676
vt 0.728415 0.857344
vt 0.602182 0.989555
vt 0.542348 0.964770
vt 0.535151 0.861499
vt 0.573359 0.803631
vt 0.635381 0.803631
vt 0.697404 0.803631
vt 0.666392 0.998008
vt 0.759426 0.803631
vt 0.804830 0.865654
vt 0.766622 0.923521
vt 0.490966 0.925344
vt 0.496944 0.811941
vt 0.542348 0.749918
vt 0.604370 0.749918
vt 0.728415 0.749918
vt 0.666392 0.749918
vt 0.730603 0.989555
vt 0.790437 0.749918
vt 0.828645 0.807786
vt 0.841818 0.925344
vt 0.881244 0.873963
vt 0.451540 0.873963
vt 0.465933 0.749918
vt 0.496944 0.687896
vt 0.573359 0.696205
vt 0.635381 0.696205
vt 0.697404 0.696205
vt 0.790437 0.964770
vt 0.759426 0.696205
vt 0.852460 0.749918
vt 0.906029 0.814129
vt 0.426756 0.814129
vt 0.426756 0.685708
vt 0.451540 0.625874
vt 0.535151 0.638338
vt 0.604370 0.642492
vt 0.666392 0.642492
vt 0.728415 0.642492
vt 0.828645 0.692051
vt 0.914482 0.749918
vt 0.418303 0.749918
vt 0.490966 0.574492
vt 0.573359 0.588779
vt 0.635381 0.580470
vt 0.697404 0.572161
vt 0.804830 0.634183
vt 0.906029 0.685708
vt 0.542347 0.535066
vt 0.602182 0.510282
vt 0.666392 0.501829
vt 0.766622 0.576315
vt 0.881244 0.625874
vt 0.730603 0.510282
vt 0.841818 0.574492
vt 0.790437 0.535066
vn -0.000000 0.000000 -1.000000
vn -0.000000 0.000000 -1.000000
vn 0.000000 0.000000 -1.000000
vn -0.000000 0.000000 -1.000000
vn 0.000000 0.000000 -1.000000
vn 0.000000 0.000000 -1.000000
vn -0.000000 0.000000 -1.000000
vn -0.000000 0.000000 -1.000000
vn 0.000000 0.000000 -1.000000
vn 0.000000 0.000000 -1.000000
vn 0.000000 0.000000 -1.000000
vn 0.000000 0.000000 -1.000000
vn 0.000000 0.000000 -1.000000
vn -0.000000 0.000000 -1.000000
vn -0.000000 0.000000 -1.000000
vn -0.000000 0.000000 -1.000000
vn -0.000000 0.000000 -1.000000
vn 0.000000 0.000000 -1.000000
vn 0.000000 0.000000 -1.000000
vn 0.000000 0.000000 -1.000000
vn -0.000000 0.000000 -1.000000
vn 0.000000 0.000000 -1.000000
vn 0.000000 0.000000 -1.000000
vn 0.000000 0.000000 -1.000000
vn -0.000000 0.000000 -1.000000
vn 0.000000 0.000000 -1.000000
vn 0.000000 0.000000 -1.000000
vn 0.000000 0.000000 -1.000000
vn 0.000000 0.000000 -1.000000
vn 0.000000 0.000000 -1.000000
vn -0.000000 0.000000 -1.000000
vn -0.000000 0.000000 -1.000000
vn -0.000000 0.000000 -1.000000
vn -0.000000 0.000000 -1.000000
vn -0.000000 0.000000 -1.000000
vn 0.000000 0.000000 -1.000000
vn 0.000000 0.000000 -1.000000
vn 0.000000 0.000000 -1.000000
vn 0.000000 0.000000 -1.000000
vn -0.000000 0.000000 -1.000000
vn -0.000000 0.000000 -1.000000
vn 0.000000 0.000000 -1.000000
vn 0.000000 0.000000 -1.000000
vn 0.000000 0.000000 -1.000000
vn -0.000000 0.000000 -1.000000
vn 0.000000 0.000000 -1.000000
vn -0.000000 0.000000 -1.000000
vn -0.000000 0.000000 -1.000000
vn 0.000000 0.000000 -1.000000
vn 0.000000 0.000000 -1.000000
vn -0.000000 0.000000 -1.000000
vn 0.000000 0.000000 -1.000000
vn -0.000000 0.000000 -1.000000
vn 0.000000 0.000000 -1.000000
vn 0.000000 0.000000 -1.000000
vn -0.000000 0.000000 -1.000000
vn -0.000000 0.000000 -1.000000
vn -0.000000 0.000000 -1.000000
vn -0.000000 0.000000 -1.000000
vn 0.000000 0.000000 -1.000000
vn 0.000000 0.000000 -1.000000
vn 0.000000 0.000000 1.000000
vn -0.000000 0.000000 1.000000
vn 0.000000 0.000000 1.000000
vn -0.000000 0.000000 1.000000
vn -0.000000 0.000000 1.000000
vn 0.000000 0.000000 1.000000
vn -0.000000 0.000000 1.000000
vn -0.000000 0.000000 1.000000
vn -0.000000 0.000000 1.000000
vn -0.000000 0.000000 1.000000
vn 0.000000 0.000000 1.000000
vn 0.000000 0.000000 1.000000
vn 0.000000 0.000000 1.000000
vn -0.000000 0.000000 1.000000
vn 0.000000 0.000000 1.000000
vn 0.000000 0.000000 1.000000
vn 0.000000 0.000000 1.000000
vn -0.000000 0.000000 1.000000
vn -0.000000 0.000000 1.000000
vn -0.000000 0.000000 1.000000
vn -0.000000 0.000000 1.000000
vn -0.000000 0.000000 1.000000
vn -0.000000 0.000000 1.000000
vn 0.000000 0.000000 1.000000
vn -0.000000 0.000000 1.000000
vn -0.000000 0.000000 1.000000
vn -0.000000 0.000000 1.000000
vn -0.000000 0.000000 1.000000
vn 0.000000 0.000000 1.000000
vn 0.000000 0.000000 1.000000
vn 0.000000 0.000000 1.000000
vn 0.000000 0.000000 1.000000
vn 0.000000 0.000000 1.000000
vn 0.000000 0.000000 1.000000
vn 0.000000 0.000000 1.000000
vn 0.000000 0.000000 1.000000
vn 0.000000 0.000000 1.000000
vn 0.000000 0.000000 1.000000
vn 0.000000 0.000000 1.000000
vn -0.000000 0.000000 1.000000
vn -0.000000 0.000000 1.000000
vn -0.000000 0.000000 1.000000
vn 0.000000 0.000000 1.000000
vn -0.000000 0.000000 1.000000
vn -0.000000 0.000000 1.000000
vn 0.000000 0.000000 1.000000
vn -0.000000 0.000000 1.000000
vn -0.000000 0.000000 1.000000
vn -0.000000 0.000000 1.000000
vn -0.000000 0.000000 1.000000
vn -0.000000 0.000000 1.000000
vn 0.000000 0.000000 1.000000
vn -0.000000 0.000000 1.000000
vn 0.000000 0.000000 1.000000
vn 0.000000 0.000000 1.000000
vn 0.000000 0.000000 1.000000
vn 0.000000 0.000000 1.000000
vn 0.000000 0.000000 1.000000
vn 0.000000 0.000000 1.000000
vn -0.000000 0.000000 1.000000
vn -0.000000 0.000000 1.000000
s 1
g polySurface1
usemtl lambert8SG
f 23/1/1 11/2/2 20/3/3 24/4/4
f 20/3/3 6/9/5 21/10/6 24/4/4
f 21/10/6 8/20/7 22/11/8 24/4/4
f 22/11/8 12/12/9 23/1/1 24/4/4
f 22/11/8 8/20/7 25/31/10 28/22/11
f 25/31/10 1/43/12 26/32/13 28/22/11
f 26/32/13 9/33/14 27/21/15 28/22/11
f 27/21/15 12/12/9 22/11/8 28/22/11
f 27/21/15 9/33/14 29/36/16 32/25/17
f 29/36/16 4/46/18 30/37/19 32/25/17
f 30/37/19 10/26/20 31/14/21 32/25/17
f 31/14/21 12/12/9 27/21/15 32/25/17
f 31/14/21 10/26/20 33/15/22 35/6/23
f 33/15/22 7/16/24 34/5/25 35/6/23
f 34/5/25 11/2/2 23/1/1 35/6/23
f 23/1/1 12/12/9 31/14/21 35/6/23
f 38/38/26 10/26/20 30/37/19 39/47/27
f 30/37/19 4/46/18 36/52/28 39/47/27
f 36/52/28 13/56/29 37/53/30 39/47/27
f 37/53/30 16/48/31 38/38/26 39/47/27
f 37/53/30 13/56/29 40/59/32 43/57/33
f 40/59/32 2/61/34 41/60/35 43/57/33
f 41/60/35 14/58/36 42/54/37 43/57/33
f 42/54/37 16/48/31 37/53/30 43/57/33
f 42/54/37 14/58/36 44/55/38 47/49/39
f 44/55/38 5/51/40 45/44/41 47/49/39
f 45/44/41 15/34/42 46/39/43 47/49/39
f 46/39/43 16/48/31 42/54/37 47/49/39
f 46/39/43 15/34/42 48/23/44 49/27/45
f 48/23/44 7/16/24 33/15/22 49/27/45
f 33/15/22 10/26/20 38/38/26 49/27/45
f 38/38/26 16/48/31 46/39/43 49/27/45
f 52/24/46 15/34/42 45/44/41 53/35/47
f 45/44/41 5/51/40 50/45/48 53/35/47
f 50/45/48 17/40/49 51/28/50 53/35/47
f 51/28/50 19/17/51 52/24/46 53/35/47
f 51/28/50 17/40/49 54/41/52 57/29/53
f 54/41/52 3/50/54 55/42/55 57/29/53
f 55/42/55 18/30/56 56/18/57 57/29/53
f 56/18/57 19/17/51 51/28/50 57/29/53
f 56/18/57 18/30/56 58/19/58 60/8/59
f 58/19/58 6/9/5 20/3/3 60/8/59
f 20/3/3 11/2/2 59/7/60 60/8/59
f 59/7/60 19/17/51 56/18/57 60/8/59
f 59/7/60 11/2/2 34/5/25 61/13/61
f 34/5/25 7/16/24 48/23/44 61/13/61
f 48/23/44 15/34/42 52/24/46 61/13/61
f 52/24/46 19/17/51 59/7/60 61/13/61
s 2
f 84/62/62 85/63/63 81/64/64 72/65/65
f 81/64/64 85/63/63 82/68/66 67/69/67
f 82/68/66 85/63/63 83/66/68 69/74/69
f 83/66/68 85/63/63 84/62/62 73/67/70
f 83/66/68 89/77/71 86/84/72 69/74/69
f 86/84/72 89/77/71 87/87/73 62/95/74
f 87/87/73 89/77/71 88/76/75 70/88/76
f 88/76/75 89/77/71 83/66/68 73/67/70
f 88/76/75 93/86/77 90/98/78 70/88/76
f 90/98/78 93/86/77 91/97/79 65/107/80
f 91/97/79 93/86/77 92/75/81 71/85/82
f 92/75/81 93/86/77 88/76/75 73/67/70
f 92/75/81 96/73/83 94/82/84 71/85/82
f 94/82/84 96/73/83 95/72/85 68/83/86
f 95/72/85 96/73/83 84/62/62 72/65/65
f 84/62/62 96/73/83 92/75/81 73/67/70
f 99/96/87 100/106/88 91/97/79 71/85/82
f 91/97/79 100/106/88 97/114/89 65/107/80
f 97/114/89 100/106/88 98/113/90 74/119/91
f 98/113/90 100/106/88 99/96/87 77/105/92
f 98/113/90 104/118/93 101/121/94 74/119/91
f 101/121/94 104/118/93 102/120/95 63/122/96
f 102/120/95 104/118/93 103/112/97 75/117/98
f 103/112/97 104/118/93 98/113/90 77/105/92
f 103/112/97 108/111/99 105/116/100 75/117/98
f 105/116/100 108/111/99 106/110/101 66/115/102
f 106/110/101 108/111/99 107/104/103 76/103/104
f 107/104/103 108/111/99 103/112/97 77/105/92
f 107/104/103 110/94/105 109/93/106 76/103/104
f 109/93/106 110/94/105 94/82/84 68/83/86
f 94/82/84 110/94/105 99/96/87 71/85/82
f 99/96/87 110/94/105 107/104/103 77/105/92
f 113/92/107 114/102/108 106/110/101 76/103/104
f 106/110/101 114/102/108 111/109/109 66/115/102
f 111/109/109 114/102/108 112/91/110 78/101/111
f 112/91/110 114/102/108 113/92/107 80/80/112
f 112/91/110 118/90/113 115/100/114 78/101/111
f 115/100/114 118/90/113 116/99/115 64/108/116
f 116/99/115 118/90/113 117/79/117 79/89/118
f 117/79/117 118/90/113 112/91/110 80/80/112
f 117/79/117 121/70/119 119/78/120 79/89/118
f 119/78/120 121/70/119 81/64/64 67/69/67
f 81/64/64 121/70/119 120/71/121 72/65/65
f 120/71/121 121/70/119 117/79/117 80/80/112
f 120/71/121 122/81/122 95/72/85 72/65/65
f 95/72/85 122/81/122 109/93/106 68/83/86
f 109/93/106 122/81/122 113/92/107 76/103/104
f 113/92/107 122/81/122 120/71/121 80/80/112
